:SAMPLES-PER-SECOND 30
:FRAME-RANGE 1-2775
:FULLY-SPECIFIED
:DEGREES
1561
root  -24.5187 38.4259 70.2557 -174.657 55.8448 178.332
RightUpLeg  2.59094 -8.31848 -8.98033
RightLeg  11.2757 -7.72243 -1.47062
RightFoot  -15.9076 0.520874 15.6962
RightToes  1.218e-010 1.26228e-014 -6.01869e-014
Spine  -3.64152 2.298 6.4601
Spine1  8.06556 2.93832 -3.88046
HEad  -1.12373 28.5089 -17.4629
LeftShoulder1  0.345947 2.10128 -22.677
LeftArm  -4.14921 9.95703 -48.5219
LeftForeArm  27.7189 4.8687 -11.9902
LeftHand  -0.0271927 5.5783 2.86408
RightShoulder  1.67745 2.5231 22.5753
RightArm  -22.3933 12.4693 51.2334
RightForeArm  54.5052 6.41103 6.13785
RightHand  0.0185481 -5.6653 -14.6447
LeftUpLeg  -29.9835 6.10114 4.29626
LeftLeg  5.44406 22.5016 1.40653
LeftFoot  4.27113 0.24493 -1.97602
LeftToes  5.08156e-010 -6.90346e-011 -6.33378e-011
1562
root  -24.0401 38.261 69.5668 -174.231 54.8807 178.649
RightUpLeg  4.00664 -8.55693 -9.39713
RightLeg  11.2651 -7.94267 -1.51868
RightFoot  -16.3486 0.630757 16.8655
RightToes  1.218e-010 1.26228e-014 -6.01869e-014
Spine  -3.70576 2.31235 6.1747
Spine1  8.32784 3.06817 -4.19088
HEad  -2.38761 27.8557 -16.8955
LeftShoulder1  0.457195 1.71012 -22.5961
LeftArm  -3.86212 10.2812 -48.2561
LeftForeArm  28.2867 4.47834 -12.0883
LeftHand  -0.0329476 5.51088 2.31511
RightShoulder  1.71087 2.73688 22.0858
RightArm  -22.0515 15.0018 54.9292
RightForeArm  55.9396 6.17369 5.90821
RightHand  0.0220202 -5.69025 -14.7519
LeftUpLeg  -30.089 6.29267 4.76161
LeftLeg  3.59158 27.763 1.17141
LeftFoot  4.43285 0.151195 -1.28589
LeftToes  5.08156e-010 -6.90346e-011 -6.33378e-011
1563
root  -23.5514 38.087 68.703 -173.88 54.1646 178.959
RightUpLeg  5.36415 -8.8382 -10.1741
RightLeg  11.7761 -7.34413 -1.60524
RightFoot  -16.4964 0.731379 18.5991
RightToes  1.218e-010 1.26228e-014 -6.01869e-014
Spine  -3.86788 2.31517 5.94992
Spine1  8.71915 3.19513 -4.55346
HEad  -3.87917 27.2015 -16.5129
LeftShoulder1  0.576787 1.28916 -22.5392
LeftArm  -3.66231 10.4827 -47.9405
LeftForeArm  29.2238 3.88852 -12.1343
LeftHand  -0.0279048 5.69623 3.13124
RightShoulder  1.78179 3.08764 21.6216
RightArm  -20.7603 17.2561 58.4683
RightForeArm  56.9733 6.12952 6.10876
RightHand  0.0376693 -5.80688 -14.9924
LeftUpLeg  -30.4195 6.95231 4.80575
LeftLeg  4.74378 28.5766 1.46294
LeftFoot  2.07364 0.0290763 -0.354075
LeftToes  5.08156e-010 -6.90346e-011 -6.33378e-011
1564
root  -23.0633 37.9976 67.6867 -173.789 53.7067 178.844
RightUpLeg  6.76961 -9.0358 -11.5006
RightLeg  12.0408 -6.19271 -1.64241
RightFoot  -15.7287 0.698573 20.8314
RightToes  1.218e-010 1.26228e-014 -6.01869e-014
Spine  -4.14232 2.3526 5.34415
Spine1  9.13631 3.43974 -5.05506
HEad  -5.14864 26.7764 -15.9885
LeftShoulder1  0.627489 1.10721 -22.4743
LeftArm  -3.36967 10.6054 -47.8138
LeftForeArm  30.1645 3.28635 -12.2114
LeftHand  -0.0267188 5.68461 3.30508
RightShoulder  1.85554 3.4416 21.2361
RightArm  -19.0141 18.7243 61.432
RightForeArm  58.355 6.54824 6.64186
RightHand  0.0241218 -5.70785 -14.7283
LeftUpLeg  -30.7601 7.19012 4.11211
LeftLeg  7.56345 28.2049 2.86081
LeftFoot  1.48705 0.100187 -0.971494
LeftToes  5.08156e-010 -6.90346e-011 -6.33378e-011
1565
root  -22.5979 37.9844 66.5135 -174.508 53.3153 177.656
RightUpLeg  7.85626 -8.64742 -13.6575
RightLeg  12.8383 -5.07124 -1.82512
RightFoot  -14.1903 0.510173 24.0927
RightToes  1.218e-010 1.26228e-014 -6.01869e-014
Spine  -4.34892 2.38677 4.01279
Spine1  9.32543 3.71476 -5.67045
HEad  -6.20099 26.5548 -15.501
LeftShoulder1  0.628057 1.12225 -22.71
LeftArm  -2.75796 10.8158 -47.5577
LeftForeArm  30.7271 2.39732 -12.3951
LeftHand  -0.0248995 5.58731 3.419
RightShoulder  1.92756 3.75732 21.0193
RightArm  -17.3922 19.0781 63.5356
RightForeArm  60.1089 7.65186 7.24659
RightHand  -0.012941 -5.4161 -14.055
LeftUpLeg  -30.7266 6.30999 2.58296
LeftLeg  9.53081 27.8517 3.88568
LeftFoot  4.82462 -0.0426999 0.0944052
LeftToes  5.08156e-010 -6.90346e-011 -6.33378e-011
1566
root  -22.1862 37.9547 65.2378 -175.307 52.3079 176.013
RightUpLeg  7.4433 -6.124 -15.7081
RightLeg  16.2964 -6.01974 -2.33705
RightFoot  -12.3833 0.178051 28.3901
RightToes  1.218e-010 1.26228e-014 -6.01869e-014
Spine  -4.44868 2.43624 2.77465
Spine1  8.93096 3.89512 -6.30276
HEad  -6.76032 25.9656 -15.1336
LeftShoulder1  0.639794 1.11414 -23.1638
LeftArm  -1.71264 10.1525 -47.3293
LeftForeArm  31.3119 2.0049 -12.7361
LeftHand  -0.0247066 5.62322 3.54569
RightShoulder  1.97949 3.92259 21.1247
RightArm  -15.1849 18.3834 64.5166
RightForeArm  59.9568 9.38557 7.7392
RightHand  -0.0243233 -5.32122 -13.5944
LeftUpLeg  -31.1197 6.44575 0.0880277
LeftLeg  11.7214 25.1191 3.99499
LeftFoot  6.29121 -0.205362 1.07744
LeftToes  5.08156e-010 -6.90346e-011 -6.33378e-011
